<mxfile host="app.diagrams.net" agent="Mozilla/5.0 (Windows NT 10.0; Win64; x64) AppleWebKit/537.36 (KHTML, like Gecko) Chrome/131.0.0.0 Safari/537.36" version="26.0.5" pages="3">
  <diagram name="第 1 页" id="GN0OuoiCQ_aFy3DAeqMj">
    <mxGraphModel dx="1909" dy="2118" grid="1" gridSize="6" guides="1" tooltips="1" connect="1" arrows="1" fold="1" page="1" pageScale="1" pageWidth="827" pageHeight="1169" math="0" shadow="0">
      <root>
        <mxCell id="0" />
        <mxCell id="1" parent="0" />
        <mxCell id="QfNz0zNg1munmrCPS3T4-1" value="IFU" style="swimlane;whiteSpace=wrap;html=1;" vertex="1" parent="1">
          <mxGeometry x="90" y="280" width="150" height="140" as="geometry" />
        </mxCell>
        <mxCell id="QfNz0zNg1munmrCPS3T4-2" value="PC" style="rounded=0;whiteSpace=wrap;html=1;" vertex="1" parent="QfNz0zNg1munmrCPS3T4-1">
          <mxGeometry x="18" y="32" width="40" height="30" as="geometry" />
        </mxCell>
        <mxCell id="QfNz0zNg1munmrCPS3T4-3" value="Inst" style="rounded=0;whiteSpace=wrap;html=1;" vertex="1" parent="QfNz0zNg1munmrCPS3T4-1">
          <mxGeometry x="66" y="92" width="80" height="30" as="geometry" />
        </mxCell>
        <mxCell id="okmHTZkQUsZOJ27MCKVJ-14" style="edgeStyle=orthogonalEdgeStyle;rounded=0;orthogonalLoop=1;jettySize=auto;html=1;exitX=1;exitY=0;exitDx=0;exitDy=0;entryX=0;entryY=0.25;entryDx=0;entryDy=0;" edge="1" parent="1" source="QfNz0zNg1munmrCPS3T4-4" target="okmHTZkQUsZOJ27MCKVJ-3">
          <mxGeometry relative="1" as="geometry" />
        </mxCell>
        <mxCell id="okmHTZkQUsZOJ27MCKVJ-15" value="rs1" style="edgeLabel;html=1;align=center;verticalAlign=middle;resizable=0;points=[];" vertex="1" connectable="0" parent="okmHTZkQUsZOJ27MCKVJ-14">
          <mxGeometry x="0.0491" relative="1" as="geometry">
            <mxPoint as="offset" />
          </mxGeometry>
        </mxCell>
        <mxCell id="okmHTZkQUsZOJ27MCKVJ-17" style="edgeStyle=orthogonalEdgeStyle;rounded=0;orthogonalLoop=1;jettySize=auto;html=1;exitX=1;exitY=0.5;exitDx=0;exitDy=0;entryX=0;entryY=0.5;entryDx=0;entryDy=0;" edge="1" parent="1" source="QfNz0zNg1munmrCPS3T4-4" target="okmHTZkQUsZOJ27MCKVJ-3">
          <mxGeometry relative="1" as="geometry" />
        </mxCell>
        <mxCell id="okmHTZkQUsZOJ27MCKVJ-18" value="rs2" style="edgeLabel;html=1;align=center;verticalAlign=middle;resizable=0;points=[];" vertex="1" connectable="0" parent="okmHTZkQUsZOJ27MCKVJ-17">
          <mxGeometry x="-0.0962" y="1" relative="1" as="geometry">
            <mxPoint as="offset" />
          </mxGeometry>
        </mxCell>
        <mxCell id="okmHTZkQUsZOJ27MCKVJ-19" style="edgeStyle=orthogonalEdgeStyle;rounded=0;orthogonalLoop=1;jettySize=auto;html=1;exitX=1;exitY=1;exitDx=0;exitDy=0;entryX=0;entryY=0.75;entryDx=0;entryDy=0;" edge="1" parent="1" source="QfNz0zNg1munmrCPS3T4-4" target="okmHTZkQUsZOJ27MCKVJ-3">
          <mxGeometry relative="1" as="geometry" />
        </mxCell>
        <mxCell id="okmHTZkQUsZOJ27MCKVJ-20" value="rd" style="edgeLabel;html=1;align=center;verticalAlign=middle;resizable=0;points=[];" vertex="1" connectable="0" parent="okmHTZkQUsZOJ27MCKVJ-19">
          <mxGeometry x="-0.0996" y="3" relative="1" as="geometry">
            <mxPoint as="offset" />
          </mxGeometry>
        </mxCell>
        <mxCell id="okmHTZkQUsZOJ27MCKVJ-21" style="edgeStyle=orthogonalEdgeStyle;rounded=0;orthogonalLoop=1;jettySize=auto;html=1;exitX=0.5;exitY=1;exitDx=0;exitDy=0;entryX=0.25;entryY=1;entryDx=0;entryDy=0;" edge="1" parent="1" source="QfNz0zNg1munmrCPS3T4-4" target="okmHTZkQUsZOJ27MCKVJ-3">
          <mxGeometry relative="1" as="geometry" />
        </mxCell>
        <mxCell id="okmHTZkQUsZOJ27MCKVJ-22" value="WEN" style="edgeLabel;html=1;align=center;verticalAlign=middle;resizable=0;points=[];" vertex="1" connectable="0" parent="okmHTZkQUsZOJ27MCKVJ-21">
          <mxGeometry x="0.347" y="-1" relative="1" as="geometry">
            <mxPoint as="offset" />
          </mxGeometry>
        </mxCell>
        <mxCell id="okmHTZkQUsZOJ27MCKVJ-24" style="edgeStyle=orthogonalEdgeStyle;rounded=0;orthogonalLoop=1;jettySize=auto;html=1;exitX=0.5;exitY=0;exitDx=0;exitDy=0;entryX=0;entryY=0;entryDx=0;entryDy=0;" edge="1" parent="1" source="QfNz0zNg1munmrCPS3T4-4" target="okmHTZkQUsZOJ27MCKVJ-23">
          <mxGeometry relative="1" as="geometry">
            <Array as="points">
              <mxPoint x="345" y="134" />
            </Array>
          </mxGeometry>
        </mxCell>
        <mxCell id="okmHTZkQUsZOJ27MCKVJ-28" value="ITYPE" style="edgeLabel;html=1;align=center;verticalAlign=middle;resizable=0;points=[];" vertex="1" connectable="0" parent="okmHTZkQUsZOJ27MCKVJ-24">
          <mxGeometry x="0.5327" y="1" relative="1" as="geometry">
            <mxPoint as="offset" />
          </mxGeometry>
        </mxCell>
        <mxCell id="okmHTZkQUsZOJ27MCKVJ-36" style="edgeStyle=orthogonalEdgeStyle;rounded=0;orthogonalLoop=1;jettySize=auto;html=1;exitX=0.5;exitY=0;exitDx=0;exitDy=0;entryX=0.5;entryY=1;entryDx=0;entryDy=0;" edge="1" parent="1" source="QfNz0zNg1munmrCPS3T4-4" target="okmHTZkQUsZOJ27MCKVJ-23">
          <mxGeometry relative="1" as="geometry">
            <Array as="points">
              <mxPoint x="366" y="310" />
              <mxPoint x="366" y="245" />
              <mxPoint x="429" y="245" />
            </Array>
          </mxGeometry>
        </mxCell>
        <mxCell id="okmHTZkQUsZOJ27MCKVJ-37" value="INST" style="edgeLabel;html=1;align=center;verticalAlign=middle;resizable=0;points=[];" vertex="1" connectable="0" parent="okmHTZkQUsZOJ27MCKVJ-36">
          <mxGeometry x="-0.2034" relative="1" as="geometry">
            <mxPoint as="offset" />
          </mxGeometry>
        </mxCell>
        <mxCell id="okmHTZkQUsZOJ27MCKVJ-68" style="edgeStyle=orthogonalEdgeStyle;rounded=0;orthogonalLoop=1;jettySize=auto;html=1;exitX=0.5;exitY=1;exitDx=0;exitDy=0;entryX=0.25;entryY=1;entryDx=0;entryDy=0;" edge="1" parent="1" source="QfNz0zNg1munmrCPS3T4-4" target="okmHTZkQUsZOJ27MCKVJ-55">
          <mxGeometry relative="1" as="geometry">
            <Array as="points">
              <mxPoint x="345" y="588" />
              <mxPoint x="1114" y="588" />
            </Array>
          </mxGeometry>
        </mxCell>
        <mxCell id="okmHTZkQUsZOJ27MCKVJ-69" value="amux1" style="edgeLabel;html=1;align=center;verticalAlign=middle;resizable=0;points=[];" vertex="1" connectable="0" parent="okmHTZkQUsZOJ27MCKVJ-68">
          <mxGeometry x="-0.051" y="-3" relative="1" as="geometry">
            <mxPoint as="offset" />
          </mxGeometry>
        </mxCell>
        <mxCell id="okmHTZkQUsZOJ27MCKVJ-70" style="edgeStyle=orthogonalEdgeStyle;rounded=0;orthogonalLoop=1;jettySize=auto;html=1;exitX=0.5;exitY=1;exitDx=0;exitDy=0;entryX=0.5;entryY=1;entryDx=0;entryDy=0;" edge="1" parent="1" source="QfNz0zNg1munmrCPS3T4-4" target="okmHTZkQUsZOJ27MCKVJ-55">
          <mxGeometry relative="1" as="geometry">
            <Array as="points">
              <mxPoint x="345" y="624" />
              <mxPoint x="1179" y="624" />
            </Array>
          </mxGeometry>
        </mxCell>
        <mxCell id="okmHTZkQUsZOJ27MCKVJ-71" value="amux2" style="edgeLabel;html=1;align=center;verticalAlign=middle;resizable=0;points=[];" vertex="1" connectable="0" parent="okmHTZkQUsZOJ27MCKVJ-70">
          <mxGeometry x="-0.1034" y="-1" relative="1" as="geometry">
            <mxPoint as="offset" />
          </mxGeometry>
        </mxCell>
        <mxCell id="okmHTZkQUsZOJ27MCKVJ-72" style="edgeStyle=orthogonalEdgeStyle;rounded=0;orthogonalLoop=1;jettySize=auto;html=1;exitX=0.5;exitY=1;exitDx=0;exitDy=0;entryX=0.75;entryY=1;entryDx=0;entryDy=0;" edge="1" parent="1" source="QfNz0zNg1munmrCPS3T4-4" target="okmHTZkQUsZOJ27MCKVJ-55">
          <mxGeometry relative="1" as="geometry">
            <Array as="points">
              <mxPoint x="345" y="666" />
              <mxPoint x="1244" y="666" />
            </Array>
          </mxGeometry>
        </mxCell>
        <mxCell id="okmHTZkQUsZOJ27MCKVJ-73" value="ALU_FUNC(funcEU)" style="edgeLabel;html=1;align=center;verticalAlign=middle;resizable=0;points=[];" vertex="1" connectable="0" parent="okmHTZkQUsZOJ27MCKVJ-72">
          <mxGeometry x="-0.1463" y="3" relative="1" as="geometry">
            <mxPoint as="offset" />
          </mxGeometry>
        </mxCell>
        <mxCell id="QfNz0zNg1munmrCPS3T4-4" value="Decode Unit" style="ellipse;whiteSpace=wrap;html=1;" vertex="1" parent="1">
          <mxGeometry x="294" y="310" width="102" height="80" as="geometry" />
        </mxCell>
        <mxCell id="QfNz0zNg1munmrCPS3T4-5" style="edgeStyle=orthogonalEdgeStyle;rounded=0;orthogonalLoop=1;jettySize=auto;html=1;exitX=1;exitY=0.5;exitDx=0;exitDy=0;entryX=0;entryY=0.5;entryDx=0;entryDy=0;" edge="1" parent="1" source="QfNz0zNg1munmrCPS3T4-3" target="QfNz0zNg1munmrCPS3T4-4">
          <mxGeometry relative="1" as="geometry" />
        </mxCell>
        <mxCell id="QfNz0zNg1munmrCPS3T4-13" value="32" style="edgeLabel;html=1;align=center;verticalAlign=middle;resizable=0;points=[];" vertex="1" connectable="0" parent="QfNz0zNg1munmrCPS3T4-5">
          <mxGeometry x="0.0322" y="1" relative="1" as="geometry">
            <mxPoint as="offset" />
          </mxGeometry>
        </mxCell>
        <mxCell id="QfNz0zNg1munmrCPS3T4-6" value="Mem" style="swimlane;whiteSpace=wrap;html=1;" vertex="1" parent="1">
          <mxGeometry x="90" y="470" width="150" height="160" as="geometry" />
        </mxCell>
        <mxCell id="QfNz0zNg1munmrCPS3T4-9" value="" style="rounded=0;whiteSpace=wrap;html=1;" vertex="1" parent="QfNz0zNg1munmrCPS3T4-6">
          <mxGeometry x="5" y="40" width="110" height="20" as="geometry" />
        </mxCell>
        <mxCell id="QfNz0zNg1munmrCPS3T4-10" value="" style="rounded=0;whiteSpace=wrap;html=1;" vertex="1" parent="QfNz0zNg1munmrCPS3T4-6">
          <mxGeometry x="15" y="50" width="110" height="20" as="geometry" />
        </mxCell>
        <mxCell id="QfNz0zNg1munmrCPS3T4-11" value="" style="rounded=0;whiteSpace=wrap;html=1;" vertex="1" parent="QfNz0zNg1munmrCPS3T4-6">
          <mxGeometry x="25" y="60" width="110" height="20" as="geometry" />
        </mxCell>
        <mxCell id="QfNz0zNg1munmrCPS3T4-12" value="" style="rounded=0;whiteSpace=wrap;html=1;" vertex="1" parent="QfNz0zNg1munmrCPS3T4-6">
          <mxGeometry x="35" y="70" width="110" height="20" as="geometry" />
        </mxCell>
        <mxCell id="QfNz0zNg1munmrCPS3T4-7" style="edgeStyle=orthogonalEdgeStyle;rounded=0;orthogonalLoop=1;jettySize=auto;html=1;exitX=0.5;exitY=1;exitDx=0;exitDy=0;entryX=0.204;entryY=0;entryDx=0;entryDy=0;entryPerimeter=0;" edge="1" parent="1" source="QfNz0zNg1munmrCPS3T4-2" target="QfNz0zNg1munmrCPS3T4-6">
          <mxGeometry relative="1" as="geometry">
            <Array as="points">
              <mxPoint x="120" y="342" />
              <mxPoint x="120" y="360" />
              <mxPoint x="121" y="360" />
            </Array>
          </mxGeometry>
        </mxCell>
        <mxCell id="QfNz0zNg1munmrCPS3T4-14" value="32" style="edgeLabel;html=1;align=center;verticalAlign=middle;resizable=0;points=[];" vertex="1" connectable="0" parent="QfNz0zNg1munmrCPS3T4-7">
          <mxGeometry x="0.2853" relative="1" as="geometry">
            <mxPoint as="offset" />
          </mxGeometry>
        </mxCell>
        <mxCell id="QfNz0zNg1munmrCPS3T4-8" style="edgeStyle=orthogonalEdgeStyle;rounded=0;orthogonalLoop=1;jettySize=auto;html=1;exitX=0.75;exitY=0;exitDx=0;exitDy=0;entryX=0.648;entryY=0.992;entryDx=0;entryDy=0;entryPerimeter=0;" edge="1" parent="1" source="QfNz0zNg1munmrCPS3T4-6" target="QfNz0zNg1munmrCPS3T4-3">
          <mxGeometry relative="1" as="geometry" />
        </mxCell>
        <mxCell id="QfNz0zNg1munmrCPS3T4-15" value="32" style="edgeLabel;html=1;align=center;verticalAlign=middle;resizable=0;points=[];" vertex="1" connectable="0" parent="QfNz0zNg1munmrCPS3T4-8">
          <mxGeometry x="-0.3696" y="-2" relative="1" as="geometry">
            <mxPoint as="offset" />
          </mxGeometry>
        </mxCell>
        <mxCell id="okmHTZkQUsZOJ27MCKVJ-60" style="edgeStyle=orthogonalEdgeStyle;rounded=0;orthogonalLoop=1;jettySize=auto;html=1;exitX=1;exitY=0.25;exitDx=0;exitDy=0;entryX=0;entryY=0.5;entryDx=0;entryDy=0;" edge="1" parent="1" source="okmHTZkQUsZOJ27MCKVJ-3" target="okmHTZkQUsZOJ27MCKVJ-55">
          <mxGeometry relative="1" as="geometry" />
        </mxCell>
        <mxCell id="okmHTZkQUsZOJ27MCKVJ-61" value="32:SRC1" style="edgeLabel;html=1;align=center;verticalAlign=middle;resizable=0;points=[];" vertex="1" connectable="0" parent="okmHTZkQUsZOJ27MCKVJ-60">
          <mxGeometry x="-0.2417" y="-2" relative="1" as="geometry">
            <mxPoint as="offset" />
          </mxGeometry>
        </mxCell>
        <mxCell id="okmHTZkQUsZOJ27MCKVJ-62" style="edgeStyle=orthogonalEdgeStyle;rounded=0;orthogonalLoop=1;jettySize=auto;html=1;exitX=1;exitY=0.5;exitDx=0;exitDy=0;entryX=0;entryY=0.75;entryDx=0;entryDy=0;" edge="1" parent="1" source="okmHTZkQUsZOJ27MCKVJ-3" target="okmHTZkQUsZOJ27MCKVJ-55">
          <mxGeometry relative="1" as="geometry" />
        </mxCell>
        <mxCell id="okmHTZkQUsZOJ27MCKVJ-63" value="32:SRC2" style="edgeLabel;html=1;align=center;verticalAlign=middle;resizable=0;points=[];" vertex="1" connectable="0" parent="okmHTZkQUsZOJ27MCKVJ-62">
          <mxGeometry x="-0.4035" y="-2" relative="1" as="geometry">
            <mxPoint as="offset" />
          </mxGeometry>
        </mxCell>
        <mxCell id="okmHTZkQUsZOJ27MCKVJ-3" value="Registers" style="swimlane;whiteSpace=wrap;html=1;" vertex="1" parent="1">
          <mxGeometry x="624" y="258" width="200" height="200" as="geometry" />
        </mxCell>
        <mxCell id="okmHTZkQUsZOJ27MCKVJ-4" value="r0" style="rounded=0;whiteSpace=wrap;html=1;" vertex="1" parent="okmHTZkQUsZOJ27MCKVJ-3">
          <mxGeometry x="30" y="30" width="110" height="20" as="geometry" />
        </mxCell>
        <mxCell id="okmHTZkQUsZOJ27MCKVJ-9" value="r31" style="rounded=0;whiteSpace=wrap;html=1;" vertex="1" parent="okmHTZkQUsZOJ27MCKVJ-3">
          <mxGeometry x="30" y="168" width="110" height="20" as="geometry" />
        </mxCell>
        <mxCell id="okmHTZkQUsZOJ27MCKVJ-8" value="r30" style="rounded=0;whiteSpace=wrap;html=1;" vertex="1" parent="okmHTZkQUsZOJ27MCKVJ-3">
          <mxGeometry x="30" y="138" width="110" height="20" as="geometry" />
        </mxCell>
        <mxCell id="okmHTZkQUsZOJ27MCKVJ-7" value="r29" style="rounded=0;whiteSpace=wrap;html=1;" vertex="1" parent="okmHTZkQUsZOJ27MCKVJ-3">
          <mxGeometry x="30" y="108" width="110" height="20" as="geometry" />
        </mxCell>
        <mxCell id="okmHTZkQUsZOJ27MCKVJ-6" value="r1" style="rounded=0;whiteSpace=wrap;html=1;" vertex="1" parent="okmHTZkQUsZOJ27MCKVJ-3">
          <mxGeometry x="30" y="60" width="110" height="20" as="geometry" />
        </mxCell>
        <mxCell id="okmHTZkQUsZOJ27MCKVJ-58" style="edgeStyle=orthogonalEdgeStyle;rounded=0;orthogonalLoop=1;jettySize=auto;html=1;exitX=1;exitY=0.5;exitDx=0;exitDy=0;entryX=0;entryY=0.25;entryDx=0;entryDy=0;" edge="1" parent="1" source="okmHTZkQUsZOJ27MCKVJ-23" target="okmHTZkQUsZOJ27MCKVJ-55">
          <mxGeometry relative="1" as="geometry">
            <Array as="points">
              <mxPoint x="723" y="153" />
              <mxPoint x="723" y="198" />
              <mxPoint x="906" y="198" />
              <mxPoint x="906" y="260" />
            </Array>
          </mxGeometry>
        </mxCell>
        <mxCell id="okmHTZkQUsZOJ27MCKVJ-59" value="32:IMM" style="edgeLabel;html=1;align=center;verticalAlign=middle;resizable=0;points=[];" vertex="1" connectable="0" parent="okmHTZkQUsZOJ27MCKVJ-58">
          <mxGeometry x="0.2348" y="3" relative="1" as="geometry">
            <mxPoint as="offset" />
          </mxGeometry>
        </mxCell>
        <mxCell id="okmHTZkQUsZOJ27MCKVJ-23" value="ImmGen" style="ellipse;whiteSpace=wrap;html=1;" vertex="1" parent="1">
          <mxGeometry x="390" y="126" width="78" height="54" as="geometry" />
        </mxCell>
        <mxCell id="okmHTZkQUsZOJ27MCKVJ-75" style="edgeStyle=orthogonalEdgeStyle;rounded=0;orthogonalLoop=1;jettySize=auto;html=1;exitX=1;exitY=0.5;exitDx=0;exitDy=0;entryX=0;entryY=0;entryDx=0;entryDy=0;" edge="1" parent="1" source="okmHTZkQUsZOJ27MCKVJ-55" target="okmHTZkQUsZOJ27MCKVJ-74">
          <mxGeometry relative="1" as="geometry">
            <Array as="points">
              <mxPoint x="1512" y="339" />
              <mxPoint x="1512" y="676" />
            </Array>
          </mxGeometry>
        </mxCell>
        <mxCell id="okmHTZkQUsZOJ27MCKVJ-76" value="ALU_OUT" style="edgeLabel;html=1;align=center;verticalAlign=middle;resizable=0;points=[];" vertex="1" connectable="0" parent="okmHTZkQUsZOJ27MCKVJ-75">
          <mxGeometry x="-0.7171" y="1" relative="1" as="geometry">
            <mxPoint as="offset" />
          </mxGeometry>
        </mxCell>
        <mxCell id="okmHTZkQUsZOJ27MCKVJ-91" style="edgeStyle=orthogonalEdgeStyle;rounded=0;orthogonalLoop=1;jettySize=auto;html=1;exitX=1;exitY=0.5;exitDx=0;exitDy=0;entryX=1;entryY=0;entryDx=0;entryDy=0;" edge="1" parent="1" source="okmHTZkQUsZOJ27MCKVJ-55" target="okmHTZkQUsZOJ27MCKVJ-40">
          <mxGeometry relative="1" as="geometry">
            <Array as="points">
              <mxPoint x="1512" y="339" />
              <mxPoint x="1512" y="-123" />
            </Array>
          </mxGeometry>
        </mxCell>
        <mxCell id="okmHTZkQUsZOJ27MCKVJ-55" value="EU" style="swimlane;whiteSpace=wrap;html=1;" vertex="1" parent="1">
          <mxGeometry x="1050" y="204" width="258" height="270" as="geometry" />
        </mxCell>
        <mxCell id="okmHTZkQUsZOJ27MCKVJ-96" style="edgeStyle=orthogonalEdgeStyle;rounded=0;orthogonalLoop=1;jettySize=auto;html=1;exitX=0.5;exitY=0;exitDx=0;exitDy=0;entryX=0.75;entryY=0;entryDx=0;entryDy=0;" edge="1" parent="okmHTZkQUsZOJ27MCKVJ-55" source="okmHTZkQUsZOJ27MCKVJ-39" target="okmHTZkQUsZOJ27MCKVJ-25">
          <mxGeometry relative="1" as="geometry" />
        </mxCell>
        <mxCell id="okmHTZkQUsZOJ27MCKVJ-39" value="MUX" style="ellipse;whiteSpace=wrap;html=1;rotation=90;" vertex="1" parent="okmHTZkQUsZOJ27MCKVJ-55">
          <mxGeometry x="36" y="100" width="66" height="32" as="geometry" />
        </mxCell>
        <mxCell id="okmHTZkQUsZOJ27MCKVJ-25" value="ALU" style="verticalLabelPosition=middle;verticalAlign=middle;html=1;shape=trapezoid;perimeter=trapezoidPerimeter;whiteSpace=wrap;size=0.23;arcSize=10;flipV=1;labelPosition=center;align=center;rotation=-90;" vertex="1" parent="okmHTZkQUsZOJ27MCKVJ-55">
          <mxGeometry x="132" y="126" width="82" height="44" as="geometry" />
        </mxCell>
        <mxCell id="okmHTZkQUsZOJ27MCKVJ-47" value="0" style="rounded=1;whiteSpace=wrap;html=1;" vertex="1" parent="okmHTZkQUsZOJ27MCKVJ-55">
          <mxGeometry x="36" y="36" width="18" height="12" as="geometry" />
        </mxCell>
        <mxCell id="okmHTZkQUsZOJ27MCKVJ-48" style="edgeStyle=orthogonalEdgeStyle;rounded=0;orthogonalLoop=1;jettySize=auto;html=1;exitX=1;exitY=0.5;exitDx=0;exitDy=0;entryX=0;entryY=1;entryDx=0;entryDy=0;" edge="1" parent="okmHTZkQUsZOJ27MCKVJ-55" source="okmHTZkQUsZOJ27MCKVJ-47" target="okmHTZkQUsZOJ27MCKVJ-39">
          <mxGeometry relative="1" as="geometry" />
        </mxCell>
        <mxCell id="okmHTZkQUsZOJ27MCKVJ-95" value="" style="edgeStyle=orthogonalEdgeStyle;rounded=0;orthogonalLoop=1;jettySize=auto;html=1;" edge="1" parent="okmHTZkQUsZOJ27MCKVJ-55" source="okmHTZkQUsZOJ27MCKVJ-90" target="okmHTZkQUsZOJ27MCKVJ-25">
          <mxGeometry relative="1" as="geometry" />
        </mxCell>
        <mxCell id="okmHTZkQUsZOJ27MCKVJ-90" value="MUX" style="ellipse;whiteSpace=wrap;html=1;rotation=90;" vertex="1" parent="okmHTZkQUsZOJ27MCKVJ-55">
          <mxGeometry x="36" y="186" width="66" height="32" as="geometry" />
        </mxCell>
        <mxCell id="okmHTZkQUsZOJ27MCKVJ-64" style="edgeStyle=orthogonalEdgeStyle;rounded=0;orthogonalLoop=1;jettySize=auto;html=1;exitX=1;exitY=0.25;exitDx=0;exitDy=0;entryX=0.25;entryY=0;entryDx=0;entryDy=0;" edge="1" parent="1" source="QfNz0zNg1munmrCPS3T4-2" target="okmHTZkQUsZOJ27MCKVJ-55">
          <mxGeometry relative="1" as="geometry">
            <Array as="points">
              <mxPoint x="264" y="320" />
              <mxPoint x="264" y="72" />
              <mxPoint x="1115" y="72" />
            </Array>
          </mxGeometry>
        </mxCell>
        <mxCell id="okmHTZkQUsZOJ27MCKVJ-66" value="32:PC" style="edgeLabel;html=1;align=center;verticalAlign=middle;resizable=0;points=[];" vertex="1" connectable="0" parent="okmHTZkQUsZOJ27MCKVJ-64">
          <mxGeometry x="0.1928" y="3" relative="1" as="geometry">
            <mxPoint as="offset" />
          </mxGeometry>
        </mxCell>
        <mxCell id="okmHTZkQUsZOJ27MCKVJ-87" style="edgeStyle=orthogonalEdgeStyle;rounded=0;orthogonalLoop=1;jettySize=auto;html=1;exitX=0.5;exitY=1;exitDx=0;exitDy=0;entryX=0.5;entryY=1;entryDx=0;entryDy=0;" edge="1" parent="1" source="okmHTZkQUsZOJ27MCKVJ-74" target="okmHTZkQUsZOJ27MCKVJ-3">
          <mxGeometry relative="1" as="geometry" />
        </mxCell>
        <mxCell id="okmHTZkQUsZOJ27MCKVJ-88" value="WDATA" style="edgeLabel;html=1;align=center;verticalAlign=middle;resizable=0;points=[];" vertex="1" connectable="0" parent="okmHTZkQUsZOJ27MCKVJ-87">
          <mxGeometry x="-0.3606" y="3" relative="1" as="geometry">
            <mxPoint as="offset" />
          </mxGeometry>
        </mxCell>
        <mxCell id="okmHTZkQUsZOJ27MCKVJ-74" value="WDATA_MUX" style="ellipse;whiteSpace=wrap;html=1;rotation=90;" vertex="1" parent="1">
          <mxGeometry x="1326" y="678" width="120" height="80" as="geometry" />
        </mxCell>
        <mxCell id="okmHTZkQUsZOJ27MCKVJ-79" value="4" style="rounded=1;whiteSpace=wrap;html=1;" vertex="1" parent="1">
          <mxGeometry x="258" y="-36" width="18" height="12" as="geometry" />
        </mxCell>
        <mxCell id="okmHTZkQUsZOJ27MCKVJ-81" value="Mux" style="shadow=0;dashed=0;align=center;html=1;strokeWidth=1;shape=mxgraph.electrical.abstract.mux2;whiteSpace=wrap;" vertex="1" parent="1">
          <mxGeometry x="186" y="864" width="80" height="120" as="geometry" />
        </mxCell>
        <mxCell id="okmHTZkQUsZOJ27MCKVJ-85" style="edgeStyle=orthogonalEdgeStyle;rounded=0;orthogonalLoop=1;jettySize=auto;html=1;exitX=0.5;exitY=1;exitDx=0;exitDy=0;entryX=1;entryY=0;entryDx=0;entryDy=0;" edge="1" parent="1" source="okmHTZkQUsZOJ27MCKVJ-83" target="okmHTZkQUsZOJ27MCKVJ-74">
          <mxGeometry relative="1" as="geometry">
            <mxPoint x="576" y="-18.258064516129025" as="targetPoint" />
            <Array as="points">
              <mxPoint x="1572" y="-18" />
              <mxPoint x="1572" y="760" />
            </Array>
          </mxGeometry>
        </mxCell>
        <mxCell id="okmHTZkQUsZOJ27MCKVJ-86" value="SNPC" style="edgeLabel;html=1;align=center;verticalAlign=middle;resizable=0;points=[];" vertex="1" connectable="0" parent="okmHTZkQUsZOJ27MCKVJ-85">
          <mxGeometry x="-0.2405" relative="1" as="geometry">
            <mxPoint x="-395" as="offset" />
          </mxGeometry>
        </mxCell>
        <mxCell id="okmHTZkQUsZOJ27MCKVJ-92" style="edgeStyle=orthogonalEdgeStyle;rounded=0;orthogonalLoop=1;jettySize=auto;html=1;exitX=0.5;exitY=1;exitDx=0;exitDy=0;entryX=0;entryY=0;entryDx=0;entryDy=0;" edge="1" parent="1" source="okmHTZkQUsZOJ27MCKVJ-83" target="okmHTZkQUsZOJ27MCKVJ-40">
          <mxGeometry relative="1" as="geometry">
            <Array as="points">
              <mxPoint x="1572" y="-18" />
              <mxPoint x="1572" y="-214" />
            </Array>
          </mxGeometry>
        </mxCell>
        <mxCell id="okmHTZkQUsZOJ27MCKVJ-83" value="ADD" style="verticalLabelPosition=middle;verticalAlign=middle;html=1;shape=trapezoid;perimeter=trapezoidPerimeter;whiteSpace=wrap;size=0.23;arcSize=10;flipV=1;labelPosition=center;align=center;rotation=-90;" vertex="1" parent="1">
          <mxGeometry x="306" y="-48" width="100" height="60" as="geometry" />
        </mxCell>
        <mxCell id="okmHTZkQUsZOJ27MCKVJ-84" style="edgeStyle=orthogonalEdgeStyle;rounded=0;orthogonalLoop=1;jettySize=auto;html=1;exitX=1;exitY=0.5;exitDx=0;exitDy=0;entryX=0.629;entryY=0.985;entryDx=0;entryDy=0;entryPerimeter=0;" edge="1" parent="1" source="okmHTZkQUsZOJ27MCKVJ-79" target="okmHTZkQUsZOJ27MCKVJ-83">
          <mxGeometry relative="1" as="geometry" />
        </mxCell>
        <mxCell id="okmHTZkQUsZOJ27MCKVJ-78" style="edgeStyle=orthogonalEdgeStyle;rounded=0;orthogonalLoop=1;jettySize=auto;html=1;exitX=1;exitY=0.25;exitDx=0;exitDy=0;entryX=0.25;entryY=0;entryDx=0;entryDy=0;" edge="1" parent="1" source="QfNz0zNg1munmrCPS3T4-2" target="okmHTZkQUsZOJ27MCKVJ-83">
          <mxGeometry relative="1" as="geometry">
            <mxPoint x="312" as="targetPoint" />
            <Array as="points">
              <mxPoint x="264" y="319" />
              <mxPoint x="264" y="7" />
            </Array>
          </mxGeometry>
        </mxCell>
        <mxCell id="okmHTZkQUsZOJ27MCKVJ-93" style="edgeStyle=orthogonalEdgeStyle;rounded=0;orthogonalLoop=1;jettySize=auto;html=1;exitX=0.5;exitY=1;exitDx=0;exitDy=0;entryX=0.5;entryY=0;entryDx=0;entryDy=0;" edge="1" parent="1" source="okmHTZkQUsZOJ27MCKVJ-40" target="QfNz0zNg1munmrCPS3T4-2">
          <mxGeometry relative="1" as="geometry" />
        </mxCell>
        <mxCell id="okmHTZkQUsZOJ27MCKVJ-94" value="DNPC" style="edgeLabel;html=1;align=center;verticalAlign=middle;resizable=0;points=[];" vertex="1" connectable="0" parent="okmHTZkQUsZOJ27MCKVJ-93">
          <mxGeometry x="-0.2124" y="-6" relative="1" as="geometry">
            <mxPoint as="offset" />
          </mxGeometry>
        </mxCell>
        <mxCell id="okmHTZkQUsZOJ27MCKVJ-40" value="DNPC_MUX" style="ellipse;whiteSpace=wrap;html=1;rotation=90;" vertex="1" parent="1">
          <mxGeometry x="1296" y="-210" width="129" height="83" as="geometry" />
        </mxCell>
      </root>
    </mxGraphModel>
  </diagram>
  <diagram id="RmsaSqwEPXkxegHAbg-i" name="第 2 页">
    <mxGraphModel grid="1" page="1" gridSize="6" guides="1" tooltips="1" connect="1" arrows="1" fold="1" pageScale="1" pageWidth="827" pageHeight="1169" math="0" shadow="0">
      <root>
        <mxCell id="0" />
        <mxCell id="1" parent="0" />
      </root>
    </mxGraphModel>
  </diagram>
  <diagram id="zFTdPbdGpDBQM3vk6v7o" name="第 3 页">
    <mxGraphModel grid="1" page="1" gridSize="6" guides="1" tooltips="1" connect="1" arrows="1" fold="1" pageScale="1" pageWidth="827" pageHeight="1169" math="0" shadow="0">
      <root>
        <mxCell id="0" />
        <mxCell id="1" parent="0" />
      </root>
    </mxGraphModel>
  </diagram>
</mxfile>
